<svg xmlns="http://www.w3.org/2000/svg" width="593.673" height="519.108" viewBox="0 0 556.568 486.663"><g stroke-linecap="round" stroke-linejoin="round"><path d="M17.392 469.27h521.785L278.284 17.391z" fill="#fd5" stroke="#d4aa00" stroke-width="34.786"/><g style="-inkscape-font-specification:'Source Sans Pro Bold';text-align:start;isolation:auto;mix-blend-mode:normal;solid-color:#000;solid-opacity:1"><path style="-inkscape-font-specification:'Palatino Linotype Bold'" d="M249.697 170.42c0-1.75.062-4.375.187-7.874 2.875-1.875 15.684-7.623 38.43-17.246l19.307.187c.125 3.75.188 6.249.188 7.499-4.35 57.336-14.873 120.526-22.12 173.773l-14.247 7.873c-6.942-51.59-21.265-112.215-21.745-164.213zm28.306 186.894c17.183 1.358 28.847 13.95 29.056 29.431-1.295 17.167-13.316 29.401-29.056 29.618-17.613-1.332-29.035-13.686-29.243-29.618 1.257-17.197 13.594-29.214 29.243-29.43z" font-family="Palatino Linotype" aria-label="!" color="#000" font-weight="700" font-size="383.913" fill="#540"/></g></g></svg>