<svg xmlns="http://www.w3.org/2000/svg" xmlns:xlink="http://www.w3.org/1999/xlink" width="532.589" height="530.013"><path d="M317.49 398.247c34.5 30.7 38.4 62.2 11.7 93.9-37.2-27.2-41.2-58.6-11.7-93.9z" fill="#d3953b"/><g transform="translate(257.69 272.547)"><defs><path d="M59.8 125.7c34.5 30.7 38.4 62.2 11.7 93.9-37.2-27.2-41.2-58.6-11.7-93.9z" id="a"/></defs><clipPath id="b"><use overflow="visible" xlink:href="#a" width="100%" height="100%"/></clipPath><g clip-path="url(#b)"><path d="M28.7 197.1l2-16 70.1-15-2.9 20.5-69.2 10.5zm77.1-.7l-8.1 27.3-46.5 7.8-15.6-20.2 70.2-14.9zm-12.7-80.1l3.8 39.4-73.5 2.5 8.4-37.7 61.3-4.2z"/></g></g><path d="M402.29 482.547c-.8 0-1.7-.2-2.4-.8-1.8-1.3-2.3-3.9-1-5.7 28.8-40.4 40.6-76.6 35.2-107.6-4.5-26.1-21.5-49.6-50.4-69.7-1.9-1.3-2.3-3.9-1-5.7 1.3-1.9 3.9-2.3 5.7-1 30.8 21.4 48.9 46.6 53.8 75 5.8 33.3-6.6 71.6-36.7 113.8-.6 1.1-1.9 1.7-3.2 1.7z" fill="#fff"/><path d="M374.49 307.647c4.9.3 9-1.2 12.7-4.4 3.5-3.3 5.5-7.3 5.8-12.2.2-4.9-1.2-9.1-4.5-12.7-3.3-3.5-7.3-5.5-12.3-5.8-4.8-.2-9 1.2-12.6 4.5-3.7 3.3-5.6 7.3-5.8 12.2-.2 4.9 1.3 9 4.5 12.7 3.3 3.6 7.4 5.6 12.2 5.7z" fill="#a5cd39"/><path d="M299.49 399.347c2.2 33.1 10.7 57.8 25.4 73.8l9.1-1c-4-5.2-6.8-8.9-8.5-11.2-10.8-15.7-17-39-18.8-69.7l-5.4 5.1c-.4.8-.9 1.7-1.8 3z" fill="#5ebcea"/><path d="M309.19 379.647c-6.2 5.2-9.5 12-9.6 20.5 7.7-3.4 11-10.3 9.6-20.5z"/><path d="M309.89 517.447c7.6 3 11.7 4.1 12.4 3.4l-4.7-8.6c-26.2-13.7-43.2-33.5-51.2-59.4-.4-1.2-1.1-3.9-2.1-7.6l-4.9 5.8c-.2.8-.5 1.9-.9 3.1 8 27.2 25.1 48.3 51.4 63.3z" fill="#5ebcea"/><path d="M264.29 433.747c-5.5 6-7.6 13.2-6.2 21.3 7.2-4.4 9.4-11.6 6.2-21.3z"/><path d="M439.29 499.047l-26-10.1c-34.2 13.4-63.2 4.5-87-26.6l-16.2 54.9c47.2 21.7 90.2 15.8 129.2-18.2z" fill="#5ebcea"/><g transform="translate(257.69 272.547)"><defs><path d="M181.6 226.5l-26-10.1c-34.2 13.4-63.2 4.5-87-26.6l-16.2 54.9c47.2 21.7 90.2 15.8 129.2-18.2z" id="c"/></defs><clipPath id="d"><use overflow="visible" xlink:href="#c" width="100%" height="100%"/></clipPath><g clip-path="url(#d)"><path d="M54.9 274.7l168.5-27.3-58.6-65.5L81 170.3 54.9 274.7z" fill="#fff"/></g></g><path d="M438.19 499.047c-3.7 0-7.6-.1-11.5-.3-2.3-.1-4-2.1-3.9-4.3.1-2.3 2.1-4 4.3-3.9 39.7 2.1 67.6-6.5 82.8-25.6 17.7-22.1 19.3-59.5 4.7-111.1-.6-2.2.7-4.5 2.8-5.1 2.2-.6 4.5.7 5.1 2.8 15.3 54.3 13.2 94.1-6.2 118.4-15.4 19.4-41.6 29.1-78.1 29.1z" fill="#fff"/><path d="M386.99 411.447c-.3 4.9-2.2 8.7-5.7 11.2-3.5 2.6-7.7 3.5-12.7 2.5-4.9-.8-8.3-3.3-10.1-7-1.8-3.7-2-8.2-.7-13.6 1.2-5.3 3.2-9.2 5.8-11.7 2.6-2.3 5.8-3 9.4-1.8 3.7 1.2 7.1 3.6 10.1 7.3 2.8 3.9 4.2 8.2 3.9 13.1z" fill="#a5cd39"/><path d="M358.99 394.447c-7.2 20.6-5.6 40.8 4.9 60.9s26.7 34 48.9 41.9c22 7.8 43.6 7.2 64.3-1.6 20.8-9 34.9-23.8 42.2-44.3 7.2-20.5 5.7-40.8-4.8-60.9-10.5-20-26.8-34-48.9-41.9-22.1-7.9-43.6-7.3-64.3 1.6-20.9 9-35 23.7-42.3 44.3z" fill="#a5cd39"/><path d="M501.79 462.747c-2.8 3.9-3.7 8.1-2.6 12.3 1.1 4.3 3.8 7.6 8.3 10 4.4 2.4 8.6 2.6 12.3.9 3.7-1.7 6.7-5.1 9.1-10 2.4-4.9 3.3-9.1 2.8-12.7-.5-3.5-2.5-6-6.1-7.3-3.5-1.5-7.7-1.7-12.4-.7s-8.5 3.4-11.4 7.5z" fill="#a5cd39"/><g transform="translate(257.69 272.547)"><defs><path d="M101.3 121.9c-7.2 20.6-5.6 40.8 4.9 60.9s26.7 34 48.9 41.9c22 7.8 43.6 7.2 64.3-1.6 20.8-9 34.9-23.8 42.2-44.3 7.2-20.5 5.7-40.8-4.8-60.9-10.5-20-26.8-34-48.9-41.9-22.1-7.9-43.6-7.3-64.3 1.6-20.9 9-35 23.7-42.3 44.3z" id="e"/></defs><clipPath id="f"><use overflow="visible" xlink:href="#e" width="100%" height="100%"/></clipPath><path d="M162.2 65.5c7.8 15.1 22.2 26.8 43.3 34.9 21.1 8.2 40.3 11.9 57.6 11.2 17.3-.8 27.6-5.8 30.8-14.9 3.3-9.2-1.5-19.9-14.1-32.1-12.7-12.3-29.6-22.5-50.8-30.5-21.1-8.1-40.4-11.8-57.6-11-17.4.8-25.1 4.3-23.4 10.4 1.6 6.2 6.3 16.9 14.2 32z" clip-path="url(#f)"/></g><path d="M487.89 401.947c-8.7-3.8-17.7-3.7-26.6.2-9.1 3.9-15.8 10.7-19.9 20.1-4.1 9.5-4.5 18.9-1.2 28.2 3.2 9.4 9.3 16 17.9 19.7 8.7 3.9 17.7 3.7 26.7-.2 9-3.9 15.7-10.7 19.8-20.1 4.1-9.4 4.5-18.8 1.2-28.2-3.1-9.3-9.1-15.8-17.9-19.7z" fill="#fff"/><path d="M467.49 434.047c-.7 1.8-.7 3.5 0 5.2.6 1.7 1.7 2.8 3.2 3.4 1.5.5 3 .4 4.6-.6 1.6-.9 2.6-2.2 3.3-4 .7-1.8.7-3.5 0-5.2-.7-1.7-1.6-2.8-3.2-3.4-1.6-.5-3.1-.4-4.6.6-1.6.9-2.7 2.2-3.3 4z" fill="#5ebcea"/><path d="M460.59 400.447c-9.5 4.1-16.4 11.3-20.8 21.1-4.3 9.9-4.7 19.8-1.3 29.6 3.5 9.9 9.8 16.7 18.9 20.7 9.1 4 18.5 3.9 28-.2 9.5-4.2 16.4-11.3 20.8-21.1 4.3-10 4.8-19.8 1.3-29.6-3.4-9.8-9.8-16.8-18.9-20.7-9.1-4.1-18.5-3.9-28 .2zm44 49.4c-4.1 9.5-10.7 16.3-19.7 20.1-9 3.9-18 4-26.7.2s-14.7-10.4-18-19.7c-3.3-9.3-2.8-18.8 1.3-28.2 4.1-9.4 10.7-16.1 19.7-20.1 9.1-3.9 18-4 26.7-.2 8.8 3.9 14.7 10.4 18 19.7 3.3 9.4 2.8 18.8-1.3 28.2z" fill="#a5cd39"/><path d="M410.09 449.047c-.2.7-.2 1.5.2 2.2.3.7.9 1.2 1.6 1.4.8.2 1.5.2 2.2-.1.7-.3 1.2-.9 1.5-1.6.2-.7.2-1.5-.1-2.1-.3-.7-1-1.2-1.7-1.6-.7-.2-1.5-.2-2.1.2-.9.3-1.4.9-1.6 1.6z" fill="#4d833c"/><path d="M387.29 475.847c13.2-.7 25.9 2.1 38.2 8.5.7-3.8.2-6.7-1-8.8-1.6-2.7-3.8-4.9-6.4-6.6-2.5-1.6-5.3-2.8-8.1-3.3-2.9-.8-5.8-1.1-8.7-.7-3.2.3-6.1 1.3-8.7 3.1-2.2 1.2-3.8 3.9-5.3 7.8z" fill="#778664"/><path d="M387.29 475.847c13.2-.7 25.9 2.1 38.2 8.5.7-3.8.2-6.7-1-8.8-1.6-2.7-3.8-4.9-6.4-6.6-2.5-1.6-5.3-2.8-8.1-3.3-2.9-.8-5.8-1.1-8.7-.7-3.2.3-6.1 1.3-8.7 3.1-2.2 1.2-3.8 3.9-5.3 7.8z" fill="#778664"/><path d="M387.29 475.847c13.2-.7 25.9 2.1 38.2 8.5.7-3.8.2-6.7-1-8.8-1.6-2.7-3.8-4.9-6.4-6.6-2.5-1.6-5.3-2.8-8.1-3.3-2.9-.8-5.8-1.1-8.7-.7-3.2.3-6.1 1.3-8.7 3.1-2.2 1.2-3.8 3.9-5.3 7.8z" fill="#4d833c"/><path d="M404.89 304.647c5.8 29.9 24.9 52.4 57.6 67.5l6.9-19.6c-21.1-17.1-32.7-35.6-34.7-55.4-3.5 9.5-4.4 20.6-2.5 33.6-8.9-6.8-17.9-15.4-27.3-26.1z"/><path d="M526.69 350.747c-2.7 4.1-6.4 6.7-11.1 7.8-4.8 1-9.2.2-13.3-2.5-4.1-2.5-6.7-6.3-7.6-11-1.1-4.8-.3-9.1 2.3-13.3 2.7-4 6.4-6.7 11.1-7.7 4.8-1 9.2-.2 13.3 2.4 4.1 2.7 6.7 6.4 7.6 11.1 1.1 4.7.2 9.1-2.3 13.2z" fill="#a5cd39"/><g transform="translate(257.69 272.547)"><defs><path d="M101.3 121.9c-7.2 20.6-5.6 40.8 4.9 60.9s26.7 34 48.9 41.9c22 7.8 43.6 7.2 64.3-1.6 20.8-9 34.9-23.8 42.2-44.3 7.2-20.5 5.7-40.8-4.8-60.9-10.5-20-26.8-34-48.9-41.9-22.1-7.9-43.6-7.3-64.3 1.6-20.9 9-35 23.7-42.3 44.3z" id="g"/></defs><clipPath id="h"><use overflow="visible" xlink:href="#g" width="100%" height="100%"/></clipPath><g clip-path="url(#h)"><path d="M143.9 92.2c-8.3-3.6-16.9-3.6-25.6.2-8.7 3.8-15.1 10.3-19.1 19.3-3.9 9-4.4 18.1-1.2 27.1 3.1 9 8.9 15.3 17.2 18.9 8.4 3.7 17 3.6 25.7-.2 8.7-3.8 15-10.2 19.1-19.2 3.9-9 4.4-18.2 1.2-27.1-3.2-9-8.9-15.4-17.3-19z" fill="#fff"/><path d="M123.8 123c-.7 1.9-.7 3.7 0 5.5.7 1.7 1.7 2.9 3.4 3.5 1.6.6 3.2.4 4.9-.6 1.6-.9 2.9-2.4 3.5-4.3.6-1.9.6-3.8 0-5.5-.7-1.8-1.9-3-3.5-3.5-1.6-.6-3.3-.4-4.9.5-1.6 1.1-2.7 2.5-3.4 4.4z" fill="#5ebcea"/><path d="M162.8 110.6c3.4 9.4 2.9 18.8-1.3 28.5-4.1 9.5-10.7 16.2-19.9 20.2-9.1 3.9-18.2 4-27 .2-8.7-3.9-14.8-10.4-18.1-19.9-3.3-9.5-2.9-18.9 1.3-28.4 4.2-9.6 10.8-16.4 19.9-20.3 9.2-3.9 18.2-4.1 26.9-.2 8.8 3.7 14.9 10.4 18.2 19.9zm-63.5 1.3c-3.9 9-4.4 18.1-1.2 27 3.1 9 8.9 15.4 17.3 19 8.4 3.6 16.9 3.5 25.7-.2 8.7-3.8 15.1-10.2 19-19.2 3.9-9 4.4-18.2 1.2-27.1-3.1-9-8.9-15.2-17.3-18.9-8.4-3.7-16.9-3.6-25.7.2-8.7 3.5-15 10.1-19 19.2z" fill="#a5cd39"/></g></g><g transform="translate(257.69 272.547)"><defs><path d="M129.6 203.3c13.2-.7 25.9 2.1 38.2 8.5.7-3.8.2-6.7-1-8.8-1.6-2.7-3.8-4.9-6.4-6.6-2.5-1.6-5.3-2.8-8.1-3.3-2.9-.8-5.8-1.1-8.7-.7-3.2.3-6.1 1.3-8.7 3.1-2.2 1.2-3.8 3.9-5.3 7.8z" id="i"/></defs><clipPath id="j"><use overflow="visible" xlink:href="#i" width="100%" height="100%"/></clipPath><g clip-path="url(#j)"><path d="M164.2 203.2c-2.5-.6-4.7-.2-6.7 1-2.1 1.2-3.7 2.7-4.9 4.8-1.3 2-1 3.5.7 4.7 1.8 1 3.8 1.6 6.1 1.8 2.2.2 4.4-.1 6.6-1.1 2.3-1 3.8-2 4.7-3 .9-1.1.6-2.5-.7-4.4-1.4-2-3.3-3.3-5.8-3.8z" fill="#f38baf"/></g></g><path d="M159.105 288.924c-.3 0-.6 0-.9-.1-2-.5-3.3-2.6-2.8-4.6 8.2-33 13.9-71.3 17.1-114 .2-2.1 2-3.7 4.1-3.5 2.1.2 3.7 2 3.5 4.1-3.2 43.1-9 81.9-17.3 115.3-.4 1.7-2 2.8-3.7 2.8z"/><path d="M174.105 180.024c-2.9-8.5-1.6-16.7 3.7-24.8 5.4 10.2 4.2 18.5-3.7 24.8zm20.1 104.9c-.3 0-.6 0-.9-.1-2.1-.5-3.3-2.6-2.8-4.6l22.2-90.6c.5-2.1 2.6-3.3 4.6-2.8 2.1.5 3.3 2.6 2.8 4.6l-22.2 90.6c-.4 1.7-1.9 2.9-3.7 2.9z"/><path d="M214.105 199.124c-2.9-8.6-1.3-16.8 4.8-24.4 5.4 10.6 3.9 18.8-4.8 24.4zm-22 101.2c2.6-8.1 5.1-16.1 7.5-24l-38.5-20.2c-1.5 8.4-3 16.8-4.6 25.1l35.6 19.1z"/><path d="M141.305 350.624l22 26.7c11.1-26.3 20.6-51.9 28.8-76.9l-35.7-19.2c-4.6 23.8-9.7 46.9-15.1 69.4z" fill="#fff"/><path d="M27.805 453.524c-1.1 0-2.3-.5-3-1.5-1.3-1.7-1-4.1.7-5.4l36.4-28.1c1.7-1.3 4.1-1 5.4.7 1.3 1.7 1 4.1-.7 5.4l-36.5 28.1c-.7.5-1.5.8-2.3.8z" fill="#a5cd39"/><path d="M163.405 404.024c-1.8 0-3.4-1.2-3.7-3l-3.3-15.8c-.4-2.1.9-4.1 3-4.5 2.1-.4 4.1.9 4.5 3l3.3 15.8c.4 2.1-.9 4.1-3 4.5-.3-.1-.6 0-.8 0z" fill="#afbd5e"/><path d="M163.405 404.024h-.6c-2.1-.3-3.5-2.3-3.2-4.4l1.6-10.4c.3-2.1 2.3-3.5 4.4-3.2 2.1.3 3.5 2.3 3.2 4.4l-1.6 10.4c-.3 1.8-2 3.2-3.8 3.2z" fill="#afbd5e"/><path d="M192.205 462.024c-1.4 0-2.8-.8-3.4-2.1l-28.8-58c-.9-1.9-.2-4.2 1.7-5.1 1.9-.9 4.2-.2 5.1 1.7l28.8 58c.9 1.9.2 4.2-1.7 5.1-.5.2-1.1.4-1.7.4z" fill="#a5cd39"/><path d="M163.405 404.024c-1.8 0-3.4-1.2-3.7-3l-3.3-15.8c-.4-2.1.9-4.1 3-4.5 2.1-.4 4.1.9 4.5 3l3.3 15.8c.4 2.1-.9 4.1-3 4.5-.3-.1-.6 0-.8 0z" fill="#fff"/><path d="M163.405 404.024h-.6c-2.1-.3-3.5-2.3-3.2-4.4l1.6-10.4c.3-2.1 2.3-3.5 4.4-3.2 2.1.3 3.5 2.3 3.2 4.4l-1.6 10.4c-.3 1.8-2 3.2-3.8 3.2z" fill="#fff"/><g transform="translate(.105 155.224)"><defs><path d="M24 269.2v-88h193.6v88C153.1 289 88.5 289 24 269.2z" id="k"/></defs><clipPath id="l"><use overflow="visible" xlink:href="#k" width="100%" height="100%"/></clipPath><path d="M27.7 298.3c-1.1 0-2.3-.5-3-1.5-1.3-1.7-1-4.1.7-5.4l36.4-28.1c1.7-1.3 4.1-1 5.4.7 1.3 1.7 1 4.1-.7 5.4L30 297.5c-.7.5-1.5.8-2.3.8zm164.4 8.5c-1.4 0-2.8-.8-3.4-2.1l-28.8-58c-.9-1.9-.2-4.2 1.7-5.1 1.9-.9 4.2-.2 5.1 1.7l28.8 58c.9 1.9.2 4.2-1.7 5.1-.5.2-1.1.4-1.7.4z" clip-path="url(#l)" fill="#fff"/></g><path d="M134.105 181.924l35.1 12c-1 68.5-7 126.1-18.3 173.3l-18.6-16.2c5.3-46.2 5.9-102.4 1.8-169.1z" fill="#ffe632"/><path d="M189.205 358.924c1.5 4.8 1.9 9.6 1.3 14.7-.9 6.8-3.4 11.9-7.7 15.2-4.4 3.4-9.1 3.9-14.5 1.8-5.1-2.1-9.4-6.4-12.5-13-.9-2-1.6-3.9-2.3-6.1l16.1-12.4c.3.8.5 1.5.9 2.3 1.9 3.8 4.3 6.6 7.2 8.1 2.9 1.5 5.6 1.4 7.8-.4 2.3-1.8 3.5-4.5 3.8-8.6-.1-.6-.1-1.1-.1-1.6zm-107.8 60.8l16.1-12.3c1.1 1.5 2.3 3.3 3.2 5.3 3.2 6.6 4.3 13.1 3.5 20.1-1 7-3.5 12-7.8 15.3-4.4 3.4-9.1 4-14.3 1.8-3.8-1.5-7.1-4.3-9.9-8.1.5.3.8.5 1.1.6 2.9 1.5 5.6 1.4 7.8-.4 2.3-1.6 3.5-4.5 3.8-8.6.3-3.8-.5-7.8-2.4-11.6-.2-.7-.7-1.4-1.1-2.1z"/><path d="M36.005 327.224c5.3-23.4 16.4-41.6 33.6-54.7 17.1-13.3 35.1-17.4 54.1-12.6 18.8 4.8 33.1 17.1 42.7 37 9.7 20 11.9 41.6 6.6 64.8-5.3 23.5-16.4 41.8-33.6 55-17.2 13.1-35.1 17.3-54.1 12.5-18.8-4.7-33-17.1-42.7-37-9.6-19.9-11.9-41.5-6.6-65z" fill="#a5cd39"/><path d="M103.205 386.124c.1-.8.5-1.4 1-1.9.6-.5 1.3-.5 2-.4.5.3 1.1.8 1.4 1.5.4.6.4 1.4.4 2.1-.3.9-.6 1.6-1.3 2-.5.5-1.1.5-1.8.4-.8-.3-1.3-.8-1.5-1.4-.3-.7-.4-1.4-.2-2.3zm2.6 28.2c.6-3.4 1.8-6.3 3.5-9 1.5-2.4 3.4-4.6 5.7-5.9 2-1.8 4.4-3 7-3.8 2.5-.6 5.2-.5 7.7.3 2 .6 4 2.7 5.9 5.9-11.2 4.5-20.7 12-28.3 22.4-1.5-4-2-7.4-1.5-9.9z" fill="#4d833c"/><path d="M105.805 414.324c.6-3.4 1.8-6.3 3.5-9 1.5-2.4 3.4-4.6 5.7-5.9 2-1.8 4.4-3 7-3.8 2.5-.6 5.2-.5 7.7.3 2 .6 4 2.7 5.9 5.9-11.2 4.5-20.7 12-28.3 22.4-1.5-4-2-7.4-1.5-9.9z" fill="#4d833c"/><path d="M105.805 414.324c.6-3.4 1.8-6.3 3.5-9 1.5-2.4 3.4-4.6 5.7-5.9 2-1.8 4.4-3 7-3.8 2.5-.6 5.2-.5 7.7.3 2 .6 4 2.7 5.9 5.9-11.2 4.5-20.7 12-28.3 22.4-1.5-4-2-7.4-1.5-9.9z" fill="#4d833c"/><g transform="translate(.105 155.224)"><defs><path d="M105.7 259.1c.6-3.4 1.8-6.3 3.5-9 1.5-2.4 3.4-4.6 5.7-5.9 2-1.8 4.4-3 7-3.8 2.5-.6 5.2-.5 7.7.3 2 .6 4 2.7 5.9 5.9-11.2 4.5-20.7 12-28.3 22.4-1.5-4-2-7.4-1.5-9.9z" id="m"/></defs><clipPath id="n"><use overflow="visible" xlink:href="#m" width="100%" height="100%"/></clipPath><path d="M133.8 241.3c1.9.4 3 1.4 3.2 2.9 0 1.4-.4 3.3-1.1 5.8-.6 2.4-1.9 4.3-3.3 5.7-1.5 1.6-3.2 2.7-4.9 3.2-1.5.6-2.7-.4-3.2-2.9-.4-2.4-.4-4.9.1-7.3.5-2.4 1.8-4.4 3.5-5.8 2-1.6 3.9-2 5.7-1.6z" clip-path="url(#n)" fill="#f38baf"/></g><path d="M40.905 284.424c-.4 22.7 2.4 46 8.2 69.8l-8.7 6.7-9.7 7.5c-4.4-16.4-4.8-33.5-1.3-51.4 1-5.3 2.3-10.5 3.9-15.3 2.2-6.2 4.7-12 7.6-17.3z" fill="#fff"/><path d="M40.905 284.424c5.7-10.1 13-18.5 22.1-25.4 5.9-4.7 12.1-8.2 18.5-10.5.3 24 4 48 11.1 72.2l-43.5 33.4c-5.8-23.7-8.5-47-8.2-69.7z" fill="#5ebcea"/><path d="M30.705 368.324l9.7-7.5c.4 1.4.6 3 1 4.5 0 .1.1.5.3.8 5.4 22.4 13.5 45.1 24.5 68.4l-10 7.6c-11.7-24.7-20.2-49.2-25.5-73.8z" fill="#aaa9a3"/><path d="M41.705 366.124c-.1-.3-.3-.6-.3-.8-.4-1.5-.6-3.2-1-4.5l8.7-6.7 43.5-33.5 45.4-35 37.3 65-109.1 83.9c-11-23.2-19.1-46-24.5-68.4z"/><path d="M154.805 272.924c3.8 4.8 7.2 10.6 10.2 16.9 9.4 19.1 12.6 39.3 10.2 60.8l-37.3-65-45.4 35c-7.1-24.1-10.9-48.2-11.1-72.2 12.1-4.4 24.6-4.7 37.8-.8 14.1 4.4 26.1 12.8 35.6 25.3z" fill="#fff"/><path d="M127.505 331.624c-1.4-.5-2.8-.5-3.8.4-1.1 1-1.8 2.3-2 4-.3 1.8.1 3.4.9 5.2.8 1.6 1.9 2.7 3.2 3.3 1.4.5 2.7.4 3.8-.5 1.1-.9 1.9-2.1 2-3.9.3-1.9 0-3.4-.9-5.2-.8-1.6-1.8-2.8-3.2-3.3zm-70.8 54.5c.3-1.9.9-3.2 2-3.9 1.1-1 2.4-1 3.8-.5 1.3.5 2.4 1.5 3.2 3.3.8 1.6 1.1 3.3.9 5.2-.3 1.8-.9 3-2 3.9-1.1.9-2.4 1-3.8.5-1.3-.6-2.4-1.6-3.3-3.3-.6-1.8-1-3.4-.8-5.2z" fill="#fff"/><path d="M187.705 476.224c3.3 3.2 7.3 4.7 11.9 4.4 4.6-.1 8.2-1.9 11.4-5.2 3-3.3 4.4-7.2 4.4-11.8-.3-4.6-1.9-8.3-5.3-11.5-3.3-2.9-7.2-4.4-11.6-4.2-4.7.1-8.3 1.9-11.5 5.2-3 3.2-4.6 7.2-4.3 11.6-.1 4.7 1.7 8.6 5 11.5zm-182.3-6.7c3.2 3.2 7.2 4.5 11.6 4.4 4.5-.3 8.3-1.9 11.4-5.3 3.2-3.2 4.5-7.2 4.5-11.6-.3-4.5-2-8.3-5.2-11.5-3.4-3-7.5-4.4-11.9-4.3-4.5.1-8.2 1.9-11.4 5.2-3.2 3.3-4.5 7.2-4.4 11.8.4 4.4 2 8.3 5.4 11.3z" fill="#a5cd39"/><path d="M347.106 135.005h-.2c-1.8-.1-3.2-1.7-3-3.5 3.5-50.3 17.4-89.1 41.4-115.4 1.2-1.3 3.3-1.4 4.6-.2 1.3 1.2 1.4 3.3.2 4.6-23 25.2-36.3 62.7-39.7 111.4-.2 1.8-1.6 3.1-3.3 3.1z" fill="#afbd5e"/><path d="M347.106 135.005h-.2c-1.8-.1-3.2-1.7-3-3.5 3.5-50.3 17.4-89.1 41.4-115.4 1.2-1.3 3.3-1.4 4.6-.2 1.3 1.2 1.4 3.3.2 4.6-23 25.2-36.3 62.7-39.7 111.4-.2 1.8-1.6 3.1-3.3 3.1z" fill="#a5cd39"/><path d="M378.006 11.105c.9-3.8 3-6.8 6.4-8.9 3.3-2.1 6.9-2.7 10.8-1.8 3.8.9 6.8 3 9 6.4 2.1 3.4 2.7 7 1.8 10.8-.9 3.9-3 6.8-6.3 9-3.4 2.1-7 2.7-10.9 1.8-3.8-.9-6.9-3-8.9-6.4-2.2-3.4-2.9-7-1.9-10.9z" fill="#a5cd39"/><path d="M294.606 203.305l5.8 3.5c-17.6 28.1-31.3 65-41.1 110.5l-5.9 4.9c0-6.4.3-10.7.8-12.8 10.2-43.2 23.6-78.6 40.4-106.1z"/><path d="M251.606 326.605c-.2-4.5.6-8.4 2.4-11.7 1.9-3.3 4.2-5.5 7-6.4 2.1 9.7 2 17.4-.5 23.2-.8 1.9-1.6 3.4-2.8 4.7l-1.1 1.5c-3.1-3.1-4.8-6.9-5-11.3z" fill="#fff"/><path d="M311.506 214.605l6.3 1.3c-3.6 17.7-3 27.7 1.7 29.7 5.7 1.3 16.1-4.9 30.9-18.9 1.3.1 2.5.2 3.4.4l2.8 3.4c-18.7 17.2-31.8 24.4-39.2 21.6-8.6-2.3-10.6-14.8-5.9-37.5z"/><path d="M369.406 233.805c-4.4.8-8.4.3-11.9-1-3.5-1.5-5.9-3.5-7.1-6.2 9.3-3.3 17-4 23.1-2.2 1.9.5 3.6 1.2 5 2.1l1.6 1.1c-2.9 3.4-6.4 5.5-10.7 6.2z" fill="#fff"/><path d="M293.906 203.505c-.6 2-1 4.1-1.3 6.2-.1.6-.1 1.1-.2 1.8 3.9 5.3 9 8.4 15.4 9.5 4.6.8 8.2-.8 10.8-4.5 1.3-1.8 2.3-3.6 3.1-5.6-11.1-1.7-20.4-4.2-27.8-7.4z"/><path d="M322.306 209.405c.9-2.9 1.9-5.8 3-8.7 1.1-2.8 2.2-5.6 3.3-8.3 8.2-19.8 16.7-36.2 25.6-49l-17.3-2.8c-18.5 21.6-31.3 38.8-38.3 51.8-2.1 3.6-3.7 7.3-4.8 11.2 7.4 3.2 16.7 5.7 27.8 7.5.3-.7.5-1.2.7-1.7z" fill="#fff"/><path d="M325.706 157.205c-.2 0-.5-.1-.7-.2-.5-.4-.6-1.1-.2-1.6l13.3-17.6c.4-.5 1.1-.6 1.6-.2.5.4.6 1.1.2 1.6l-13.3 17.6c-.2.3-.6.4-.9.4zm7.2 3.9c-.6 0-1.1-.2-1.6-.5-1.4-1-1.1-3.1-.9-3.8v-.1c.5-1.6 1.2-3.1 2.3-4.4 1.1-1.4 2.3-2.6 3.7-3.4 1.6-.9 2.9-.9 3.9-.2 1 .8 1.3 2 .8 3.8-.3 1.4-1.1 2.9-2.2 4.4-1.1 1.4-2.3 2.5-3.7 3.4-.9.6-1.6.8-2.3.8zm-.3-3.8c-.2 1.2 0 1.5 0 1.5.1.1.4.3 1.5-.3 1.1-.7 2.1-1.6 3-2.8 1-1.3 1.6-2.5 1.8-3.6.1-.4.3-1.3 0-1.5 0 0-.1-.1-.2-.1-.2 0-.5.1-1.2.4-1.1.6-2.1 1.6-3 2.8-.9 1.2-1.5 2.3-1.9 3.6z" fill="#ace0f0"/><path d="M353.806 145.905c-1.1 0-2.1-.5-2.7-1.5-1-1.5-.6-3.5.9-4.5l106.8-71.5c1.5-1 3.5-.6 4.5.9s.6 3.5-.9 4.5l-106.8 71.5c-.5.4-1.2.6-1.8.6z" fill="#a5cd39"/><path d="M331.106 108.805c-.7 2.5-2.2 5.2-4.5 7.7-3.4 3.9-7.5 6.6-12.4 8.3-4.9 1.7-9.1 1.8-12.7.2-3.5-1.5-5.3-4.2-5.5-8-.1-3 .9-6 3-9.1.2-.2.4-.5.6-.8-.2.7-.3 1.3-.3 2-.1 1.1 0 2.1.3 2.8.4.9 1 1.5 1.9 1.9 1.8.7 3.9.4 6.5-.9 2.6-1.4 4.9-3.5 6.9-6.1.4-.6.8-1.1 1.1-1.7.5-.8.9-1.6 1.2-2.3l13.9 6z"/><g transform="translate(251.606 .005)"><defs><path d="M83.5 117.3l64.1-33.8L146 138l-41.6 19-20.9-39.7z" id="o"/></defs><clipPath id="p"><use overflow="visible" xlink:href="#o" width="100%" height="100%"/></clipPath><path d="M102.2 146c-1.1 0-2.2-.5-2.8-1.5-1-1.6-.6-3.7.9-4.7l106.8-71.5c1.6-1 3.7-.6 4.7.9 1 1.6.6 3.7-.9 4.7l-106.8 71.5c-.6.4-1.3.6-1.9.6z" clip-path="url(#p)" fill="#fff"/></g><path d="M338.006 40.305c15.1-5.7 30.3-5.4 45.5 1.1 15.1 6.5 26 17.1 32.3 32 6.4 14.9 6.4 29.6.2 44.1-6.3 14.6-16.9 24.8-32 30.5-15.2 5.7-30.3 5.3-45.5-1.1-15.2-6.5-26-17.1-32.3-32-6.3-14.9-6.4-29.7-.1-44.2 6.2-14.5 16.9-24.7 31.9-30.4z" fill="#a5cd39"/><path d="M360.306 81.305c5.9-2.9 11.7-3.2 17.2-.7s9.1 6.9 10.9 13.2c1.8 6.4 1.2 12.9-1.8 19.5-2.9 6.6-7.4 11.3-13.4 14.2-5.9 3-11.6 3.2-17.1.8-5.5-2.5-9.1-6.9-10.9-13.3-1.8-6.4-1.2-12.9 1.8-19.5s7.4-11.3 13.3-14.2zm16.6.6c-5.2-2.3-10.5-2.1-16.2.7-5.6 2.8-9.8 7.2-12.6 13.5-2.8 6.2-3.4 12.3-1.7 18.3s5.1 10.2 10.3 12.5c5.1 2.3 10.6 2.1 16.2-.7s9.8-7.3 12.6-13.5c2.8-6.3 3.3-12.3 1.6-18.4-1.6-5.9-5-10.1-10.2-12.4z" fill="#a5cd39"/><path d="M324.506 113.605c.4-.1.8-.1 1.2 0 .4.2.7.4.9.9.1.4.1.8 0 1.2-.1.4-.5.6-.9.9-.4.1-.8.1-1.2 0-.4-.2-.7-.4-.9-.9-.2-.4-.2-.8 0-1.2.2-.4.5-.7.9-.9zm-4.3 15.4c-1.1-1.7-1.8-3.7-2.1-6.1 8.2 2.1 16.8 2.3 25.8.7-.5 2.4-1.3 4.4-2.5 6-1.4 2.2-3.2 3.7-5.1 4.7-1.9.9-3.7 1.3-5.6 1.1-1.9.1-3.8-.4-5.6-1.4-1.9-1.1-3.6-2.7-4.9-5z" fill="#4d833c"/><path d="M320.206 129.005c-1.1-1.7-1.8-3.7-2.1-6.1 8.2 2.1 16.8 2.3 25.8.7-.5 2.4-1.3 4.4-2.5 6-1.4 2.2-3.2 3.7-5.1 4.7-1.9.9-3.7 1.3-5.6 1.1-1.9.1-3.8-.4-5.6-1.4-1.9-1.1-3.6-2.7-4.9-5z" fill="#4d833c"/><path d="M320.206 129.005c-1.1-1.7-1.8-3.7-2.1-6.1 8.2 2.1 16.8 2.3 25.8.7-.5 2.4-1.3 4.4-2.5 6-1.4 2.2-3.2 3.7-5.1 4.7-1.9.9-3.7 1.3-5.6 1.1-1.9.1-3.8-.4-5.6-1.4-1.9-1.1-3.6-2.7-4.9-5z" fill="#4d833c"/><g transform="translate(251.606 .005)"><defs><path d="M68.6 129c-1.1-1.7-1.8-3.7-2.1-6.1 8.2 2.1 16.8 2.3 25.8.7-.5 2.4-1.3 4.4-2.5 6-1.4 2.2-3.2 3.7-5.1 4.7-1.9.9-3.7 1.3-5.6 1.1-1.9.1-3.8-.4-5.6-1.4-1.9-1.1-3.6-2.7-4.9-5z" id="q"/></defs><clipPath id="r"><use overflow="visible" xlink:href="#q" width="100%" height="100%"/></clipPath><g clip-path="url(#r)"><path d="M89.7 131.4c1.1.9 1.5 1.9 1 2.7-.4.8-1.3 1.6-2.5 2.5-1.3.9-2.6 1.4-4.1 1.5-1.4.2-2.8.1-4-.4-1.3-.4-1.7-1.4-1.1-2.8.6-1.5 1.4-2.7 2.5-3.7s2.5-1.5 4.2-1.5c1.5.1 2.9.7 4 1.7z" fill="#f38baf"/></g></g><path d="M418.606 70.205c.1.3.3.7.4 1 2.8 7 4.1 13.9 3.7 20.6 0 .7 0 1.5-.1 2.2-.2 1.5-.3 2.9-.5 4.4-.7 5.4-2 10.5-3.8 15.3-.6 2-1.2 3.9-1.9 5.8-3.8 10.2-9.6 19.3-17.3 27-3.7 3.5-7.4 5.9-11.2 7.3-1.3.5-2.8.8-4.7.7-3.8-.1-6.5-1.4-8.1-4-1.7-2.6-1.9-5.6-.5-9.1.9-2.4 2.4-4.6 4.3-6.5.2 2.9 1 4.8 2.4 5.9 1.4 1.1 2.9 1.6 4.5 1.3 1.6-.2 3.2-1.6 4.8-4 1.6-2.4 3.3-5.4 5-8.8 1-1.9 1.9-3.9 2.9-6 1.3-2.9 2.7-6.1 4.1-9.6 2.4-5.8 4.7-12.3 7.4-19.6l8.6-23.9z"/><path d="M317.006 49.805c5.5-5.2 12.2-9.3 20.2-12.1 15.5-5.6 31.5-4.6 47.9 2.8 1.6.7 3.2 1.4 4.6 2.2 5.3 2.6 10.8 6.3 16.5 11 5.4 4.5 9.5 10 12.3 16.6.1.3.3.7.4 1 2.8 7 4.1 13.9 3.7 20.6 0 .7 0 1.5-.1 2.2-.2 1.5-.3 2.9-.5 4.4-.2 1.2-.5 3-.9 5.5l-12.4-11 .1.1c-.1-.2-.3-.3-.5-.5-.1 0-.2-.1-.3-.2-21.1-18.6-51.5-32.8-91-42.6z"/><path d="M454.106 69.305c0-3.7 1.3-6.7 3.8-9.3 2.6-2.5 5.6-3.8 9.3-3.8 3.7 0 6.7 1.3 9.3 3.8 2.6 2.6 3.8 5.6 3.8 9.3 0 3.6-1.3 6.7-3.8 9.3-2.6 2.5-5.6 3.8-9.3 3.8-3.6 0-6.7-1.3-9.3-3.8-2.5-2.5-3.8-5.7-3.8-9.3z" fill="#a5cd39"/><g transform="translate(251.606 .005)"><defs><path d="M86.4 40.3c15.1-5.7 30.3-5.4 45.5 1.1 15.1 6.5 26 17.1 32.3 32 6.4 14.9 6.4 29.6.2 44.1-6.3 14.6-16.9 24.8-32 30.5-15.2 5.7-30.3 5.3-45.5-1.1-15.2-6.5-26-17.1-32.3-32-6.3-14.9-6.4-29.7-.1-44.2C60.7 56.2 71.4 46 86.4 40.3z" id="s"/></defs><clipPath id="t"><use overflow="visible" xlink:href="#s" width="100%" height="100%"/></clipPath><g clip-path="url(#t)"><path d="M52.4 57.9c5.6-2.8 10.8-3 15.9-.7 5 2.3 8.4 6.4 10.1 12.3 1.7 5.9 1.1 11.9-1.6 18-2.8 6.1-6.9 10.5-12.4 13.2-5.5 2.8-10.8 2.9-15.8.7-5.1-2.4-8.4-6.4-10.1-12.3-1.7-5.9-1.1-11.9 1.6-18S47 60.6 52.4 57.9z" fill="#fff"/><path d="M54.7 87.8c1.7-1.1 3.3-1.4 4.8-.8 1.5.7 2.4 1.9 2.8 4 .4 2 .1 4.1-.9 6.4-.9 2.2-2.3 3.9-4 5-1.7 1.2-3.3 1.4-4.8.8-1.5-.6-2.4-1.9-2.8-3.9-.3-2-.1-4.2.9-6.5.9-2.3 2.2-4 4-5z" fill="#e25ca1"/><path d="M79.7 69.3c-1.8-6.2-5.2-10.3-10.5-12.7-5.2-2.4-10.7-2.1-16.5.7C47 60 42.7 64.6 39.8 71c-2.8 6.4-3.4 12.6-1.7 18.7 1.8 6.1 5.2 10.3 10.5 12.7 5.3 2.4 10.8 2.1 16.5-.7 5.7-2.8 10-7.4 12.8-13.7 2.8-6.4 3.4-12.6 1.8-18.7zM68.6 57.9c5 2.2 8.3 6.2 9.9 12 1.6 5.8 1.1 11.6-1.6 17.6-2.7 6-6.7 10.2-12.1 13-5.4 2.6-10.6 2.8-15.6.6-4.9-2.2-8.3-6.2-9.9-12-1.6-5.8-1.1-11.6 1.6-17.7 2.7-6 6.6-10.2 12.1-12.9 5.4-2.6 10.6-2.9 15.6-.6z" fill="#a5cd39"/><path d="M109 82.1c5.7-2.8 11.2-3.1 16.5-.7 5.3 2.4 8.8 6.6 10.5 12.8 1.8 6.2 1.1 12.4-1.7 18.8s-7.1 10.9-12.9 13.8c-5.7 2.8-11.2 3-16.6.7-5.3-2.4-8.8-6.6-10.4-12.8-1.8-6.2-1.2-12.4 1.7-18.7 2.9-6.5 7.2-11 12.9-13.9z" fill="#fff"/><path d="M100.9 103.6c2.3-1.2 4.5-1.4 6.6-.5 2.1.9 3.5 2.6 4.2 5.1.8 2.6.5 5.2-.6 7.8-1.1 2.7-2.9 4.7-5.2 5.9-2.3 1.2-4.5 1.4-6.6.5-2.1-.9-3.5-2.6-4.2-5.1-.7-2.6-.5-5.1.6-7.8s2.8-4.7 5.2-5.9z" fill="#e25ca1"/></g></g></svg>